<mxfile host="app.diagrams.net" modified="2024-06-05T09:48:27.263Z" agent="Mozilla/5.0 (X11; Linux x86_64) AppleWebKit/537.36 (KHTML, like Gecko) Chrome/120.0.0.0 Safari/537.36 OPR/106.0.0.0" etag="-4Dt8oP7PuQaznCErEFR" version="24.4.13" type="device">
  <diagram name="Page-1" id="iyDQWM6fSrRv6G1RTW3Y">
    <mxGraphModel dx="962" dy="530" grid="1" gridSize="10" guides="1" tooltips="1" connect="1" arrows="1" fold="1" page="1" pageScale="1" pageWidth="850" pageHeight="1100" math="0" shadow="0">
      <root>
        <mxCell id="0" />
        <mxCell id="1" parent="0" />
        <mxCell id="oCF-AY2tPDeBj5sLnERt-1" value="" style="rounded=0;whiteSpace=wrap;html=1;" vertex="1" parent="1">
          <mxGeometry x="160" y="240" width="560" height="380" as="geometry" />
        </mxCell>
        <mxCell id="oCF-AY2tPDeBj5sLnERt-2" value="NX Monorepo" style="text;html=1;align=center;verticalAlign=middle;resizable=0;points=[];autosize=1;strokeColor=none;fillColor=none;" vertex="1" parent="1">
          <mxGeometry x="620" y="240" width="100" height="30" as="geometry" />
        </mxCell>
        <mxCell id="oCF-AY2tPDeBj5sLnERt-4" value="" style="rounded=1;whiteSpace=wrap;html=1;" vertex="1" parent="1">
          <mxGeometry x="190" y="310" width="180" height="240" as="geometry" />
        </mxCell>
        <mxCell id="oCF-AY2tPDeBj5sLnERt-5" value="" style="rounded=1;whiteSpace=wrap;html=1;" vertex="1" parent="1">
          <mxGeometry x="470" y="310" width="180" height="240" as="geometry" />
        </mxCell>
        <mxCell id="oCF-AY2tPDeBj5sLnERt-6" value="api-gateway" style="rounded=1;whiteSpace=wrap;html=1;" vertex="1" parent="1">
          <mxGeometry x="215" y="350" width="135" height="40" as="geometry" />
        </mxCell>
        <mxCell id="oCF-AY2tPDeBj5sLnERt-7" value="apps" style="text;html=1;align=center;verticalAlign=middle;resizable=0;points=[];autosize=1;strokeColor=none;fillColor=none;" vertex="1" parent="1">
          <mxGeometry x="250" y="310" width="50" height="30" as="geometry" />
        </mxCell>
        <mxCell id="oCF-AY2tPDeBj5sLnERt-8" value="transactions" style="rounded=1;whiteSpace=wrap;html=1;" vertex="1" parent="1">
          <mxGeometry x="215" y="400" width="135" height="40" as="geometry" />
        </mxCell>
        <mxCell id="oCF-AY2tPDeBj5sLnERt-9" value="anti-fraud" style="rounded=1;whiteSpace=wrap;html=1;" vertex="1" parent="1">
          <mxGeometry x="215" y="450" width="135" height="40" as="geometry" />
        </mxCell>
        <mxCell id="oCF-AY2tPDeBj5sLnERt-10" value="packages" style="text;html=1;align=center;verticalAlign=middle;resizable=0;points=[];autosize=1;strokeColor=none;fillColor=none;" vertex="1" parent="1">
          <mxGeometry x="525" y="310" width="70" height="30" as="geometry" />
        </mxCell>
        <mxCell id="oCF-AY2tPDeBj5sLnERt-11" value="config" style="rounded=1;whiteSpace=wrap;html=1;" vertex="1" parent="1">
          <mxGeometry x="492.5" y="340" width="135" height="40" as="geometry" />
        </mxCell>
        <mxCell id="oCF-AY2tPDeBj5sLnERt-12" value="shared" style="rounded=1;whiteSpace=wrap;html=1;" vertex="1" parent="1">
          <mxGeometry x="492.5" y="440" width="135" height="40" as="geometry" />
        </mxCell>
        <mxCell id="oCF-AY2tPDeBj5sLnERt-13" value="database" style="rounded=1;whiteSpace=wrap;html=1;" vertex="1" parent="1">
          <mxGeometry x="492.5" y="390" width="135" height="40" as="geometry" />
        </mxCell>
      </root>
    </mxGraphModel>
  </diagram>
</mxfile>
